<svg xmlns="http://www.w3.org/2000/svg" xmlns:xlink="http://www.w3.org/1999/xlink" version="1.1" x="0px" y="0px" viewBox="0 0 1417.3 1771.625" style="enable-background:new 0 0 1417.3 1417.3;" xml:space="preserve"><g><path d="M630.4,1056.9c-9.3-1.2-18.5-2.6-27.6-4.3c-2.6-0.5-5.1,0.5-6.8,2.5c-3.3,4.2-1,10.4,4.3,11.4c9.4,1.7,18.9,3.2,28.4,4.4   c3.1,0.4,6-1.2,7.3-4C638,1062.6,635.2,1057.5,630.4,1056.9z"/><path d="M642,780.7c-9.2-1.4-18.3-3-27.4-5.1l0,0c-2.5-0.6-5.1,0.3-6.9,2.2c-3.5,4.1-1.5,10.4,3.8,11.6c9.4,2.1,18.8,3.8,28.4,5.3   c4.9,0.7,8.9-3.6,8-8.4C647.3,783.4,645,781.2,642,780.7z"/><path d="M598.3,642.7c9.4,1.7,18.9,3.2,28.4,4.5c2.9,0.4,5.6-1,7.1-3.5c2.5-4.4-0.2-9.9-5.2-10.6c-9.2-1.2-18.5-2.7-27.6-4.4v0   c-5.5-1-9.9,4.4-7.8,9.6C594,640.7,595.9,642.3,598.3,642.7z"/><path d="M669.4,651.5c9.5,0.6,19,1.1,28.6,1.4c5.8,0.1,9.3-6.2,6.1-11c-1.3-1.9-3.4-3.1-5.7-3.1c-9.4-0.3-18.7-0.7-28-1.3   c-4.2-0.3-7.6,3-7.6,7.2C662.9,648.2,665.8,651.2,669.4,651.5z"/><path d="M700.3,1062.2c-9.4-0.2-18.7-0.6-28-1.3c-5.5-0.3-9.3,5.5-6.7,10.4c1.2,2.2,3.3,3.5,5.8,3.7c9.5,0.6,19.1,1,28.6,1.3   c5.6,0.1,9.1-5.9,6.3-10.7C705,1063.5,702.8,1062.2,700.3,1062.2z"/><path d="M560.2,619.2c-8.9-2.7-17.4-5.5-26.1-9.1h0c-5.1-2.1-10.5,2.1-9.7,7.6c0.4,2.5,2,4.6,4.3,5.6c9,3.7,18.1,6.8,27.5,9.6   c2.4,0.7,4.9,0.1,6.7-1.6C567.1,627.5,565.6,620.8,560.2,619.2z"/><path d="M485.9,750l-52.8-21.8l0,14.3H302.1c-3.9,0-7.1,3.2-7.1,7.1c0,3.9,3.2,7.1,7.1,7.1h131l0,14.5L485.9,750z"/><path d="M1141.9,742.5h-131.1l0-14.3L958,750l52.8,21.1l0-14.5h131c3.9,0,7.1-3.2,7.1-7.1C1149,745.7,1145.8,742.5,1141.9,742.5z"/><path d="M711.6,786c-9.3-0.1-18.7-0.4-28-1c-5.7-0.3-9.4,5.8-6.5,10.7c1.2,2,3.3,3.3,5.7,3.5c9.6,0.6,19.1,0.9,28.7,1   c5.1,0,8.5-5,6.6-9.7C717,787.8,714.5,786.1,711.6,786z"/><path d="M562,1043.2c-8.9-2.5-17.6-5.4-26.2-8.8l0,0c-4.1-1.6-8.6,0.8-9.5,5.1c-0.7,3.4,1.1,6.8,4.3,8.1c9,3.6,18.2,6.6,27.5,9.3   c2.4,0.7,4.9,0.1,6.7-1.6C569,1051.5,567.4,1044.8,562,1043.2z"/><path d="M839.9,1051.8c-9.2,1.7-18.4,3.2-27.6,4.5c-5.3,0.8-7.9,6.9-4.7,11.2c1.6,2.1,4.1,3.2,6.7,2.8c9.5-1.3,18.9-2.8,28.3-4.6   c5.4-1,7.6-7.4,4-11.6C844.9,1052.2,842.4,1051.3,839.9,1051.8z"/><path d="M913.9,1034c-2.1-1.7-4.8-2.2-7.3-1.1c-8.5,3.6-17.2,6.6-26,9.2l0,0c-3.3,1-5.4,4.2-5,7.6c0.5,4.4,4.8,7.2,9.1,6   c9.3-2.8,18.5-6,27.4-9.7C916.9,1043.8,917.8,1037.4,913.9,1034z"/><path d="M856.2,770.1c-1.9-1.6-4.3-2.1-6.7-1.3c-8.7,2.7-17.9,5.2-26.8,7h0c-5.4,1.2-7.4,7.8-3.7,11.8c1.7,1.8,4.2,2.6,6.6,2.1   c9.3-1.9,19-4.5,28.1-7.3C859.1,780.6,860.5,773.8,856.2,770.1z"/><path d="M882.7,632.9c9.3-2.7,18.5-5.8,27.5-9.5c5.2-2.2,5.9-9.2,1.3-12.4c-2-1.3-4.5-1.6-6.7-0.7c-8.5,3.5-17.3,6.4-26.1,9   c-4.3,1.3-6.4,6.2-4.2,10.2C876.1,632.4,879.5,633.9,882.7,632.9z"/><path d="M740.9,652.9c9.5-0.3,19.1-0.7,28.6-1.3c5.8-0.4,8.6-7.1,5-11.6c-1.5-1.8-3.6-2.7-5.9-2.5c-9.3,0.6-18.7,1.1-28,1.3   c-5.6,0.2-8.8,6.4-5.7,11C736.2,651.8,738.5,652.9,740.9,652.9z"/><path d="M951.7,870.2c-41.7-130.3-40.1-134.1,5.8-250.9c1.9-4.9,4-10,6-15.4c13-33.2,11.2-55.4,9.4-77.2   c-1.8-21.4-3.5-42.4,12.8-74.7l0.4-0.8l0.3-0.8c15-45.5-5.6-63.3-38.8-74.3c-10.4-3.4-22.3-6-34.7-8.8c-9.4-2.1-19.2-4.2-28.9-6.9   c-10.6-3-20.4-5.4-29.3-7.5c-41.3-10.1-59.9-14.7-58.9-61.8l0-1.1l-0.2-0.9c-0.7-4.3-2.2-8.1-4.2-11.7c-4-7.7-11.9-14.1-22.6-18.8   c-10.3-4.5-23.6-7.7-38.3-8.8l0.2-87.9c7.9-2.2,14.9-6.4,20.6-12c8.5-8.5,13.7-20.1,13.7-33c0-12.9-5.2-24.6-13.7-33   c-8.5-8.5-20.1-13.7-33-13.7s-24.6,5.2-33,13.7c-8.5,8.5-13.7,20.1-13.7,33c0,12.9,5.2,24.6,13.7,33c6.2,6.2,14.1,10.6,22.9,12.6   l-0.2,87.3c-14.7,1.1-28,4.2-38.3,8.8c-15.7,6.9-25.4,17.5-25.4,30.2c0,0.1,0,0.2,0,0.3L644,290l0,1.1c1,47.1-17.6,51.7-58.9,61.8   c-8.9,2.2-18.7,4.6-29.3,7.5c-9.7,2.7-19.4,4.9-28.9,6.9c-12.4,2.7-24.3,5.4-34.7,8.8c-33.3,10.9-53.8,28.8-38.8,74.3l0.3,0.8   l0.4,0.8c16.4,32.3,14.7,53.3,12.9,74.7c-1.8,21.7-3.6,43.9,9.3,77.1l2.6,6.6c49.8,128.2,57.6,148.3,9.6,258.7l-0.3,0.8l-0.1,0.3   c-32.7,104-29.3,177.4,2.4,226.6c32,49.8,91.9,73.9,172,79.2c7.2,0.5,15.4,0.9,24.7,1.1c5.9,0.2,12.1,0.3,18.8,0.4l0,0l-0.3,126.3   c0,6.2,5.1,11.3,11.3,11.3c6.2,0,11.3-5.1,11.3-11.3l0.3-126.4c5.9-0.1,11.5-0.2,16.7-0.3c9.3-0.3,17.5-0.6,24.7-1.1   c80-5.3,141.7-29.3,175.5-78.9C979.2,1047.9,984.5,974.4,951.7,870.2L951.7,870.2z M701.1,133.9c-4.4-4.4-7-10.4-7-17   c0-6.6,2.7-12.7,7-17c4.4-4.4,10.4-7,17-7s12.7,2.7,17,7c4.4,4.4,7,10.4,7,17c0,6.6-2.7,12.7-7,17c-4.4,4.4-10.4,7-17,7   S705.5,138.2,701.1,133.9z M679.4,279.8c7.9-3.7,17.8-5.9,28.4-7l0,6.3c0,6.2,5.1,11.3,11.3,11.3c6.2,0,11.3-5.1,11.3-11.3h0l0-6.5   c11.1,1,21.6,3.3,29.9,7.2c5,2.3,9,5.2,11.2,8.4c0,0.2,0,0.3,0,0.5c0,2.8-4.5,6.3-11.9,9.5c-10.2,4.5-24.5,7.2-40.5,7.2   s-30.3-2.8-40.5-7.2c-6.1-2.7-10.3-5.5-11.5-8C669,286.1,673.4,282.6,679.4,279.8z M951,993.1c0,2.2-0.4,4-1,6   c-1.8,5.3-5.3,9.5-9.3,13.3l0,0c-4.1,3.9-2.2,10.8,3.3,12.1c1.8,0.4,3.7,0.1,5.2-0.8c-3.3,23.9-11,44-22.3,60.7   c-29.5,43.2-85.3,64.2-158.4,69.1c-7.7,0.5-15.6,0.9-23.8,1.1c-8.8,0.3-18.2,0.4-28.5,0.4c-10.2,0-19.7-0.2-28.5-0.4   c-8.3-0.2-16.1-0.6-23.8-1.1c-73-4.9-126.8-25.8-154.5-68.8c-10.8-16.8-17.7-37-20.5-61.1c0.9,0.8,1.8,1.6,2.8,2.4   c2,1.7,4.7,2.1,7.2,1.1c5-2,6-8.6,1.9-12c-4.8-4-9.2-8.7-11.7-14.5c-0.6-1.4-1-2.9-1.3-4.4c0-0.2-0.1-0.4-0.1-0.6   c0.5-33.2,7.5-72.4,21.9-118.4c22.1-51,33.1-83.9,34.3-115.8c7.5,6.3,17,11.3,26,15.1c5.1,2.1,10.5-2,9.8-7.5   c-0.4-2.5-1.9-4.6-4.3-5.6c-7.8-3.3-16.1-7.6-22.6-13.1c-2.7-2.2-6.3-2.1-8.9-0.2c-1.4-38.3-16.7-77.8-43.9-147.9l-0.6-1.5   c3.5-2.6,4-7.8,0.7-10.9c-2.9-2.7-5.4-5.6-7.4-9.1c-0.1-0.1-0.1-0.3-0.2-0.4c-5.4-20.5-4.1-36.3-2.8-51.9   c2-24.4,3.9-48.3-14.9-85.8c-8.7-27.4,4-38.3,24.5-45c9.8-3.2,21-5.7,32.6-8.2c9.9-2.2,20.1-4.4,30-7.2c10.5-2.9,20-5.3,28.6-7.4   c45.2-11.1,69.4-17,75-57.9c1.3,0.7,2.7,1.4,4.2,2c12.9,5.7,30.4,9.2,49.6,9.2s36.7-3.5,49.6-9.2c1.9-0.9,3.8-1.8,5.5-2.7   c5.4,41.5,29.6,47.5,75.1,58.6c8.6,2.1,18.1,4.4,28.6,7.4c9.9,2.8,20.1,5,30,7.2c11.6,2.6,22.8,5,32.6,8.2   c20.5,6.7,33.3,17.6,24.5,45c-18.8,37.5-16.8,61.3-14.8,85.8c1.3,15.2,2.5,30.8-2.5,50.6c-2,4.3-5.2,7.9-8.6,11.1   c-1.9,1.7-2.6,4.3-2.1,6.8c0.5,1.9,1.6,3.5,3.1,4.4c-1.3,3.3-2.6,6.5-3.8,9.7c-23,58.6-35.5,90.3-37.6,122.2   c-0.2,0.7-0.3,1.4-0.3,2.2c0,1.7-0.4,3-1,4.6c-2.2,5-7,9.2-11.3,12.2c-2.1,1.5-3.2,4-2.9,6.6c0.6,5.4,6.7,8.1,11.1,5   c1.7-1.2,3.4-2.5,5-3.9c3,28.5,13.3,62.2,30.8,117.1l0,0c13.9,44.4,20.6,82.5,21,114.9l0,0C951,992.3,951,992.7,951,993.1z"/><path d="M770.5,1060.6c-9.3,0.7-18.7,1.1-28,1.4h0c-5.5,0.2-8.7,6.2-5.8,10.8c1.4,2.1,3.7,3.4,6.2,3.3c9.5-0.3,19.1-0.8,28.6-1.4   c5.8-0.4,8.7-7.3,4.9-11.7C774.8,1061.3,772.7,1060.5,770.5,1060.6z"/><polygon points="1010.9,771.2 1010.9,771.2 1010.9,771.2  "/><path d="M781.4,782.5L781.4,782.5c-9.3,1.1-18.5,1.9-27.9,2.5l0,0c-5.6,0.4-8.6,6.8-5.2,11.3c1.5,1.9,3.7,3,6.1,2.8   c9.5-0.6,19.2-1.4,28.6-2.5c2.5-0.3,4.6-1.9,5.7-4.2C791,787.4,786.9,781.9,781.4,782.5z"/><path d="M812.3,647.3c9.5-1.3,19-2.7,28.4-4.5c3.6-0.7,6.1-4,5.7-7.7c-0.5-4.1-4.3-6.9-8.3-6.2c-9.2,1.7-18.4,3.1-27.6,4.4   c-3.7,0.5-6.4,3.8-6.1,7.6C804.6,644.9,808.3,647.8,812.3,647.3z"/></g><text x="0" y="1432.3" fill="#000000" font-size="5px" font-weight="bold" font-family="'Helvetica Neue', Helvetica, Arial-Unicode, Arial, Sans-serif">Created by Alexander Panasovsky</text><text x="0" y="1437.3" fill="#000000" font-size="5px" font-weight="bold" font-family="'Helvetica Neue', Helvetica, Arial-Unicode, Arial, Sans-serif">from the Noun Project</text></svg>